# xmcd
#
# Track frame offsets:
# 182
# 18780
# 39135
# 54757
# 67212
# 85097
# 110390
# 130505
# 146097
# 164850
# 181995
# 201362
# 218115
# 233040
# 255332
#
# Disc length: 3638 seconds
#
#
# Revision: 0
# Processed by: cddbd v1.5.2PL0 Copyright (c) Steve Scherf et al.
# Submitted via: FreeRIP 2.96 
#
DISCID=c80e340f
DTITLE=Chico Buarque de Holanda - Grandes Talentos da MPG
DYEAR=1900
DGENRE=MPB
TTITLE0=Olê, Olá
TTITLE1=Apesar de você
TTITLE2=Carolina
TTITLE3=A Rita
TTITLE4=Januária
TTITLE5=Vai Passar
TTITLE6=Realejo
TTITLE7=Quem te viu, quem te vê
TTITLE8=Com açucar, com afeto
TTITLE9=A Banda
TTITLE10=Roda viva
TTITLE11=Retrato em branco e preto
TTITLE12=Ela desatinou
TTITLE13=Noite dos mascarados
TTITLE14=Umas e outras
EXTD=Instrumental
EXTT0=
EXTT1=
EXTT2=
EXTT3=
EXTT4=
EXTT5=
EXTT6=
EXTT7=
EXTT8=
EXTT9=
EXTT10=
EXTT11=
EXTT12=
EXTT13=
EXTT14=
PLAYORDER=
